<svg width="762" height="762" viewBox="0 0 762 762" fill="none" xmlns="http://www.w3.org/2000/svg">
<path d="M589.185 287.216C559.169 276.565 207.571 152.105 189.989 145.967C168.058 138.299 150.688 156.475 154.293 175.88C157.079 190.84 227.215 571.736 231.913 593.299C234.992 607.44 240.427 612.977 248.559 613.844C249.194 613.837 249.809 613.817 250.464 613.817C293.03 613.817 370.534 325.657 415.325 325.657C446.297 325.657 472.85 406.452 484.355 433.334C541.983 382.302 590.66 338.473 597.59 332.431C613.171 318.857 608.897 294.215 589.185 287.216Z" fill="#0089CC"/>
<path d="M416.359 352.471C402.218 352.471 340.494 529.684 299.997 596.318C333.898 565.503 403.304 504.885 464.707 450.698C458.31 423.741 430.09 352.471 416.359 352.471Z" fill="#444444"/>
</svg>
